<svg id="Layer_1" data-name="Layer 1" xmlns="http://www.w3.org/2000/svg" viewBox="0 0 386.31 271.01"><defs><style>.cls-1,.cls-2{fill:#fff;}.cls-2{font-size:61.35px;font-family:RobotoCondensed-Bold, Roboto Condensed;font-weight:700;letter-spacing:-0.09em;}.cls-3{letter-spacing:0em;}.cls-4{letter-spacing:-0.01em;}.cls-5{letter-spacing:0em;}</style></defs><title>FakeStore</title><path class="cls-1" d="M826.78,569.13c7.82,0,15.4,0,23,.09.59,0,1.47,1.22,1.69,2a101.62,101.62,0,0,0,17.15,34.64c26.29,34.12,61,49.8,103.87,44.51,37.47-4.61,65.14-24.79,83.46-57.59,3.81-6.83,6-14.54,9-21.83.28-.68.93-1.71,1.42-1.72,7.65-.11,15.31-.08,23-.08-9,48.17-55.93,104.27-128.09,105.85C886.07,676.65,836.53,619.38,826.78,569.13Z" transform="translate(-763.69 -404.03)"/><path class="cls-1" d="M834.67,487.37c1.67-4.14,3-8.12,4.83-11.79a126.67,126.67,0,0,1,21.76-30,131.16,131.16,0,0,1,53.42-34.15c33.94-11.33,67.35-9.63,100,5.27a132.59,132.59,0,0,1,43.65,32.41,126.92,126.92,0,0,1,16.31,22.37c2.43,4.3,4.13,9,6.09,13.58a21.26,21.26,0,0,1,.74,3.24c-1.09.07-1.92.17-2.75.17-6.4,0-12.8-.06-19.21.05a3.37,3.37,0,0,1-3.47-2.07c-14.63-26.55-36.19-45.17-65.27-53.71-38.94-11.45-74.39-3.77-105.53,22.52a109,109,0,0,0-24.92,31.1c-.36.63-1.17,1.44-1.78,1.45-7.35.08-14.71,0-22.06,0A13.65,13.65,0,0,1,834.67,487.37Z" transform="translate(-763.69 -404.03)"/><path class="cls-1" d="M958.55,634.79q-16.6,0-33.2,0a12.61,12.61,0,0,1-8.56-2.88c-4.71-4-4.31-10.67,1-14.09,8.11-5.21,16.32-10.26,24.48-15.37,4-2.52,8.08-5,12-7.6a4.81,4.81,0,0,0,1.5-2.61,10.25,10.25,0,0,0,.08-2.83c0-3.49.18-3.7,3.67-4.57a5.43,5.43,0,0,0,4.37-5.9,5.3,5.3,0,0,0-5.11-4.71,5.25,5.25,0,0,0-5.6,4.68c-.26,2-.84,3.55-3.14,3.2s-2.36-2.21-2.15-4a10.74,10.74,0,0,1,21.05-1.2,10.91,10.91,0,0,1-5.64,12.37c-1.05.5-2.14.7-2.16,2.35a3.66,3.66,0,0,0,1.93,3.64q17.53,10.85,35,21.85c4.67,2.94,6.31,6.3,5.22,10.35-1,3.83-5.49,7.22-10.13,7.3-8,.15-16,.07-23.94.08-3.56,0-7.12,0-10.67,0Zm-.13-5.36v0c10.83,0,21.66.06,32.48-.06a12.13,12.13,0,0,0,5.4-1.32c2.55-1.37,2.51-4.16.06-5.71q-18.25-11.5-36.58-22.87a2.84,2.84,0,0,0-2.48,0Q939,610.88,920.71,622.38c-2.44,1.53-2.49,4.37,0,5.69a11.82,11.82,0,0,0,5.18,1.3C936.76,629.49,947.59,629.43,958.42,629.43Z" transform="translate(-763.69 -404.03)"/><path class="cls-1" d="M955.25,476.13h5.81c0-2.52.13-5,0-7.5-.15-2.23,1-2.37,2.75-2.37s2.59.23,2.56,2.29c-.11,7.4,0,14.8,0,22.36h-5.21c0-2.74-.08-5.47,0-8.19.07-1.79-.21-2.9-2.4-2.63-1.7.21-3.78-.59-3.5,2.53.25,2.73,0,5.49,0,8.33h-4.94a15.56,15.56,0,0,1-.2-1.79c0-6.94,0-13.89-.08-20.84,0-2,1-2.15,2.47-2.07s2.92-.34,2.78,2C955.13,470.83,955.25,473.42,955.25,476.13Z" transform="translate(-763.69 -404.03)"/><path class="cls-1" d="M984.12,470.11h-8v6.06h7.12c.8,3.66.62,3.88-2.58,3.92-5.56.08-4.5-.56-4.71,4.62-.09,1.93.49,2.74,2.49,2.61s3.9,0,6,0v3.58h-13.7v-4.19c0-6.08.06-12.16,0-18.25,0-1.64.46-2.26,2.14-2.2,2.76.12,5.53.06,8.3.07C984.41,466.31,984.41,466.31,984.12,470.11Z" transform="translate(-763.69 -404.03)"/><path class="cls-1" d="M947.37,466.26v4.2h-5.48v20.38h-5.32c0-4.11,0-8.19,0-12.27,0-2.05,0-4.1,0-6.15,0-1.39-.38-2.09-1.87-1.93-.63.07-1.28-.06-1.89,0-1.84.26-2-.8-2.05-2.25s.58-2,2.08-2C937.61,466.3,942.34,466.26,947.37,466.26Z" transform="translate(-763.69 -404.03)"/><path class="cls-1" d="M872.5,559.1c-1.42,0-2.82.37-2.83-2.09,0-3.11,2.08-1.92,3.53-2.17,1.78-.3,2.19.51,2.26,2.22C875.57,559.56,874,559.15,872.5,559.1Z" transform="translate(-763.69 -404.03)"/><path class="cls-1" d="M891.82,554.46a35.23,35.23,0,0,1,5.81,1.21c.3.11.17,2.87-.16,3a8.56,8.56,0,0,1-4.74.23C892.12,558.64,892.19,556.45,891.82,554.46Z" transform="translate(-763.69 -404.03)"/><path class="cls-1" d="M914.6,555h5.23v3.85C914.9,560,914,559.42,914.6,555Z" transform="translate(-763.69 -404.03)"/><path class="cls-1" d="M931.19,555v4h-5.44v-4Z" transform="translate(-763.69 -404.03)"/><path class="cls-1" d="M942.34,559H937v-4h5.32Z" transform="translate(-763.69 -404.03)"/><path class="cls-1" d="M947.82,555h5.69v3.94a19.71,19.71,0,0,1-5-.17C948,558.62,948.06,556.53,947.82,555Z" transform="translate(-763.69 -404.03)"/><path class="cls-1" d="M959.33,558.93V555h5.38v3.92Z" transform="translate(-763.69 -404.03)"/><path class="cls-1" d="M970.55,559.28v-4.57a26.88,26.88,0,0,1,5.27.68c.34.12.36,3.05,0,3.16A26.9,26.9,0,0,1,970.55,559.28Z" transform="translate(-763.69 -404.03)"/><path class="cls-1" d="M825.16,555h5.27v3.91h-5.27Z" transform="translate(-763.69 -404.03)"/><path class="cls-1" d="M1031.79,554.6v4.67a30.39,30.39,0,0,1-5.35-.74c-.32-.09-.37-2.87-.06-3A32.18,32.18,0,0,1,1031.79,554.6Z" transform="translate(-763.69 -404.03)"/><path class="cls-1" d="M1037.64,559v-4H1043v4Z" transform="translate(-763.69 -404.03)"/><path class="cls-1" d="M1015.26,558.77c-.4-4.31,0-4.55,5.16-3.68C1021.15,559,1021.56,559.73,1015.26,558.77Z" transform="translate(-763.69 -404.03)"/><path class="cls-1" d="M836.47,555h5.17v3.78C836.55,560.14,835.51,559.39,836.47,555Z" transform="translate(-763.69 -404.03)"/><path class="cls-1" d="M852.92,555.05v3.88h-5.44v-3.88Z" transform="translate(-763.69 -404.03)"/><path class="cls-1" d="M864,555c.55,4.55.33,4.71-5.23,3.95V555Z" transform="translate(-763.69 -404.03)"/><path class="cls-1" d="M1071.16,558.87v-3.82h5.23C1077.34,559.17,1076.63,559.72,1071.16,558.87Z" transform="translate(-763.69 -404.03)"/><path class="cls-1" d="M1065.42,555v3.6c-4.62,1.6-6,.73-5.29-3.6Z" transform="translate(-763.69 -404.03)"/><path class="cls-1" d="M1082.64,554.59a29.85,29.85,0,0,1,5.12,1.09c.31.12.16,2.86-.15,2.94a9.2,9.2,0,0,1-4.73.21c-.57-.18-.58-2.25-.85-3.46Z" transform="translate(-763.69 -404.03)"/><path class="cls-1" d="M1009.31,559h-5.21v-3.69C1008.91,553.77,1010,554.53,1009.31,559Z" transform="translate(-763.69 -404.03)"/><path class="cls-1" d="M886.93,554.56c-.47,2-.44,4-1.13,4.29a7,7,0,0,1-4.51-.15c-.41-.13-.52-3-.25-3.11A37.12,37.12,0,0,1,886.93,554.56Z" transform="translate(-763.69 -404.03)"/><path class="cls-1" d="M902.91,559.35c.46-1.91.44-4,1.13-4.23a7.12,7.12,0,0,1,4.5.2c.38.13.44,3,.13,3.13A31.77,31.77,0,0,1,902.91,559.35Z" transform="translate(-763.69 -404.03)"/><path class="cls-1" d="M987.68,559.45a37.49,37.49,0,0,1-6-1.14c-.29-.1-.2-2.83.16-2.95a7.26,7.26,0,0,1,4.49-.26C987.09,555.38,987.12,557.41,987.68,559.45Z" transform="translate(-763.69 -404.03)"/><path class="cls-1" d="M998.2,555v3.78c-5.19,1.17-5.9.68-5.31-3.78Z" transform="translate(-763.69 -404.03)"/><path class="cls-1" d="M1049.1,554.58a28.82,28.82,0,0,1,5.11,1.09c.31.12.21,2.83-.16,3a7.17,7.17,0,0,1-4.48.29c-.74-.29-.8-2.3-1.16-3.53Z" transform="translate(-763.69 -404.03)"/><text class="cls-2" transform="translate(0 143.91) scale(1.27 1)">F<tspan class="cls-3" x="23.43" y="0">AKE S</tspan><tspan class="cls-4" x="171.39" y="0">T</tspan><tspan class="cls-5" x="203.87" y="0">ORE</tspan></text></svg>